<?xml version="1.0" encoding="UTF-8"?>
<svg version="1.1" xmlns="http://www.w3.org/2000/svg" width="500" height="500">
<path d="M0 0 C2.49055871 3.76435592 2.03090984 6.86617377 1.625 11.25 C1.51414063 12.51328125 1.40328125 13.7765625 1.2890625 15.078125 C1.14597656 16.52445313 1.14597656 16.52445313 1 18 C0.67 18 0.34 18 0 18 C-0.33 16.02 -0.66 14.04 -1 12 C-1.33 13.98 -1.66 15.96 -2 18 C-2.66 17.67 -3.32 17.34 -4 17 C-4.31241371 14.45058627 -4.51303421 11.99638487 -4.625 9.4375 C-4.66367188 8.72658203 -4.70234375 8.01566406 -4.7421875 7.28320312 C-4.83671783 5.52257575 -4.91945817 3.76132272 -5 2 C-2 0 -2 0 0 0 Z " fill="#A6A6A6" transform="translate(251,230)"/>
<path d="M0 0 C-0.33 5.28 -0.66 10.56 -1 16 C-1.33 16 -1.66 16 -2 16 C-2.33 11.05 -2.66 6.1 -3 1 C-1 0 -1 0 0 0 Z " fill="#141414" transform="translate(249,231)"/>
</svg>
