<?xml version="1.0" encoding="UTF-8"?>
<svg version="1.1" xmlns="http://www.w3.org/2000/svg" width="500" height="500">
<path d="M0 0 C0.87648193 -0.00095673 1.75296387 -0.00191345 2.65600586 -0.00289917 C4.50862703 -0.00357949 6.3612506 -0.0017355 8.21386719 0.00244141 C11.0514867 0.00779173 13.88894792 0.00249142 16.7265625 -0.00390625 C18.52604202 -0.00324544 20.32552143 -0.00196423 22.125 0 C22.97505615 -0.00202423 23.8251123 -0.00404846 24.70092773 -0.00613403 C28.06923216 0.00729012 30.8449649 0.0603008 34.0625 1.1328125 C34.0625 2.1228125 34.0625 3.1128125 34.0625 4.1328125 C37.6925 4.1328125 41.3225 4.1328125 45.0625 4.1328125 C45.3925 5.4528125 45.7225 6.7728125 46.0625 8.1328125 C49.6925 8.1328125 53.3225 8.1328125 57.0625 8.1328125 C57.0625 9.4528125 57.0625 10.7728125 57.0625 12.1328125 C59.7025 12.1328125 62.3425 12.1328125 65.0625 12.1328125 C65.0625 13.4528125 65.0625 14.7728125 65.0625 16.1328125 C67.7025 16.1328125 70.3425 16.1328125 73.0625 16.1328125 C73.0625 17.4528125 73.0625 18.7728125 73.0625 20.1328125 C75.3725 20.1328125 77.6825 20.1328125 80.0625 20.1328125 C80.3925 21.4528125 80.7225 22.7728125 81.0625 24.1328125 C83.3725 24.1328125 85.6825 24.1328125 88.0625 24.1328125 C88.0625 25.4528125 88.0625 26.7728125 88.0625 28.1328125 C89.3825 28.1328125 90.7025 28.1328125 92.0625 28.1328125 C92.0625 29.1228125 92.0625 30.1128125 92.0625 31.1328125 C93.3825 31.1328125 94.7025 31.1328125 96.0625 31.1328125 C96.0625 32.4528125 96.0625 33.7728125 96.0625 35.1328125 C97.3825 35.1328125 98.7025 35.1328125 100.0625 35.1328125 C100.0625 36.4528125 100.0625 37.7728125 100.0625 39.1328125 C102.3725 39.1328125 104.6825 39.1328125 107.0625 39.1328125 C107.3925 40.4528125 107.7225 41.7728125 108.0625 43.1328125 C109.0525 43.1328125 110.0425 43.1328125 111.0625 43.1328125 C111.0625 44.4528125 111.0625 45.7728125 111.0625 47.1328125 C112.3825 47.1328125 113.7025 47.1328125 115.0625 47.1328125 C115.0625 49.7728125 115.0625 52.4128125 115.0625 55.1328125 C116.3825 55.1328125 117.7025 55.1328125 119.0625 55.1328125 C119.0625 56.1228125 119.0625 57.1128125 119.0625 58.1328125 C120.3825 58.4628125 121.7025 58.7928125 123.0625 59.1328125 C123.0625 60.1228125 123.0625 61.1128125 123.0625 62.1328125 C124.3825 62.4628125 125.7025 62.7928125 127.0625 63.1328125 C127.0625 64.1228125 127.0625 65.1128125 127.0625 66.1328125 C128.3825 66.4628125 129.7025 66.7928125 131.0625 67.1328125 C131.0625 69.4428125 131.0625 71.7528125 131.0625 74.1328125 C132.3825 74.1328125 133.7025 74.1328125 135.0625 74.1328125 C135.0625 76.7728125 135.0625 79.4128125 135.0625 82.1328125 C136.3825 82.4628125 137.7025 82.7928125 139.0625 83.1328125 C139.0625 85.1128125 139.0625 87.0928125 139.0625 89.1328125 C140.0525 89.1328125 141.0425 89.1328125 142.0625 89.1328125 C142.0625 91.7728125 142.0625 94.4128125 142.0625 97.1328125 C143.3825 97.1328125 144.7025 97.1328125 146.0625 97.1328125 C146.0625 102.4128125 146.0625 107.6928125 146.0625 113.1328125 C147.3825 113.1328125 148.7025 113.1328125 150.0625 113.1328125 C150.0625 116.7628125 150.0625 120.3928125 150.0625 124.1328125 C151.3825 124.1328125 152.7025 124.1328125 154.0625 124.1328125 C154.0625 146.9028125 154.0625 169.6728125 154.0625 193.1328125 C152.7425 193.4628125 151.4225 193.7928125 150.0625 194.1328125 C150.0625 197.7628125 150.0625 201.3928125 150.0625 205.1328125 C148.7425 205.1328125 147.4225 205.1328125 146.0625 205.1328125 C146.0625 209.0928125 146.0625 213.0528125 146.0625 217.1328125 C144.7425 217.1328125 143.4225 217.1328125 142.0625 217.1328125 C142.0625 219.7728125 142.0625 222.4128125 142.0625 225.1328125 C141.0725 225.1328125 140.0825 225.1328125 139.0625 225.1328125 C139.0625 227.1128125 139.0625 229.0928125 139.0625 231.1328125 C137.7425 231.4628125 136.4225 231.7928125 135.0625 232.1328125 C135.0625 234.4428125 135.0625 236.7528125 135.0625 239.1328125 C133.7425 239.4628125 132.4225 239.7928125 131.0625 240.1328125 C131.0625 242.4428125 131.0625 244.7528125 131.0625 247.1328125 C129.7425 247.4628125 128.4225 247.7928125 127.0625 248.1328125 C126.7325 249.4528125 126.4025 250.7728125 126.0625 252.1328125 C125.0725 252.1328125 124.0825 252.1328125 123.0625 252.1328125 C122.7325 253.4528125 122.4025 254.7728125 122.0625 256.1328125 C121.0725 256.1328125 120.0825 256.1328125 119.0625 256.1328125 C119.0625 258.4428125 119.0625 260.7528125 119.0625 263.1328125 C117.7425 263.1328125 116.4225 263.1328125 115.0625 263.1328125 C115.0625 264.4528125 115.0625 265.7728125 115.0625 267.1328125 C113.7425 267.1328125 112.4225 267.1328125 111.0625 267.1328125 C111.0625 268.4528125 111.0625 269.7728125 111.0625 271.1328125 C110.0725 271.1328125 109.0825 271.1328125 108.0625 271.1328125 C107.7325 272.4528125 107.4025 273.7728125 107.0625 275.1328125 C106.0725 275.1328125 105.0825 275.1328125 104.0625 275.1328125 C103.7325 276.4528125 103.4025 277.7728125 103.0625 279.1328125 C100.7525 279.1328125 98.4425 279.1328125 96.0625 279.1328125 C96.0625 280.4528125 96.0625 281.7728125 96.0625 283.1328125 C94.7425 283.1328125 93.4225 283.1328125 92.0625 283.1328125 C92.0625 284.1228125 92.0625 285.1128125 92.0625 286.1328125 C90.7425 286.1328125 89.4225 286.1328125 88.0625 286.1328125 C88.0625 287.4528125 88.0625 288.7728125 88.0625 290.1328125 C85.7525 290.1328125 83.4425 290.1328125 81.0625 290.1328125 C80.7325 291.4528125 80.4025 292.7728125 80.0625 294.1328125 C77.7525 294.1328125 75.4425 294.1328125 73.0625 294.1328125 C72.7325 295.4528125 72.4025 296.7728125 72.0625 298.1328125 C69.7525 298.1328125 67.4425 298.1328125 65.0625 298.1328125 C65.0625 299.4528125 65.0625 300.7728125 65.0625 302.1328125 C62.4225 302.1328125 59.7825 302.1328125 57.0625 302.1328125 C57.0625 303.4528125 57.0625 304.7728125 57.0625 306.1328125 C53.4325 306.1328125 49.8025 306.1328125 46.0625 306.1328125 C45.7325 307.4528125 45.4025 308.7728125 45.0625 310.1328125 C41.4325 310.1328125 37.8025 310.1328125 34.0625 310.1328125 C34.0625 311.1228125 34.0625 312.1128125 34.0625 313.1328125 C30.73321876 314.24257291 28.26222643 314.25312145 24.75512695 314.24633789 C23.45400467 314.24626236 22.15288239 314.24618683 20.81233215 314.24610901 C19.3918148 314.24100235 17.97129783 314.23578635 16.55078125 314.23046875 C15.09775338 314.22860341 13.64472489 314.22718006 12.19169617 314.22618103 C8.36943828 314.22236496 4.54721845 314.21254243 0.72497559 314.20147705 C-3.17618291 314.19124337 -7.07734757 314.18667921 -10.97851562 314.18164062 C-18.63152776 314.17091936 -26.28450854 314.15385385 -33.9375 314.1328125 C-34.2675 312.8128125 -34.5975 311.4928125 -34.9375 310.1328125 C-39.8875 310.1328125 -44.8375 310.1328125 -49.9375 310.1328125 C-50.2675 308.8128125 -50.5975 307.4928125 -50.9375 306.1328125 C-54.5675 306.1328125 -58.1975 306.1328125 -61.9375 306.1328125 C-61.9375 304.8128125 -61.9375 303.4928125 -61.9375 302.1328125 C-64.5775 302.1328125 -67.2175 302.1328125 -69.9375 302.1328125 C-69.9375 300.8128125 -69.9375 299.4928125 -69.9375 298.1328125 C-72.5775 298.1328125 -75.2175 298.1328125 -77.9375 298.1328125 C-77.9375 296.8128125 -77.9375 295.4928125 -77.9375 294.1328125 C-80.2475 294.1328125 -82.5575 294.1328125 -84.9375 294.1328125 C-85.2675 292.8128125 -85.5975 291.4928125 -85.9375 290.1328125 C-86.9275 290.1328125 -87.9175 290.1328125 -88.9375 290.1328125 C-88.9375 289.1428125 -88.9375 288.1528125 -88.9375 287.1328125 C-91.5775 286.8028125 -94.2175 286.4728125 -96.9375 286.1328125 C-96.9375 285.1428125 -96.9375 284.1528125 -96.9375 283.1328125 C-98.2575 283.1328125 -99.5775 283.1328125 -100.9375 283.1328125 C-100.9375 281.8128125 -100.9375 280.4928125 -100.9375 279.1328125 C-102.2575 279.1328125 -103.5775 279.1328125 -104.9375 279.1328125 C-104.9375 277.8128125 -104.9375 276.4928125 -104.9375 275.1328125 C-106.2575 275.1328125 -107.5775 275.1328125 -108.9375 275.1328125 C-108.9375 273.8128125 -108.9375 272.4928125 -108.9375 271.1328125 C-111.2475 271.1328125 -113.5575 271.1328125 -115.9375 271.1328125 C-116.4325 267.1728125 -116.4325 267.1728125 -116.9375 263.1328125 C-117.9275 263.1328125 -118.9175 263.1328125 -119.9375 263.1328125 C-119.9375 261.8128125 -119.9375 260.4928125 -119.9375 259.1328125 C-121.2575 259.1328125 -122.5775 259.1328125 -123.9375 259.1328125 C-123.9375 258.1428125 -123.9375 257.1528125 -123.9375 256.1328125 C-125.2575 255.8028125 -126.5775 255.4728125 -127.9375 255.1328125 C-127.9375 254.1428125 -127.9375 253.1528125 -127.9375 252.1328125 C-129.2575 251.8028125 -130.5775 251.4728125 -131.9375 251.1328125 C-131.9375 248.8228125 -131.9375 246.5128125 -131.9375 244.1328125 C-133.2575 244.1328125 -134.5775 244.1328125 -135.9375 244.1328125 C-135.9375 242.8128125 -135.9375 241.4928125 -135.9375 240.1328125 C-137.2575 240.1328125 -138.5775 240.1328125 -139.9375 240.1328125 C-139.9375 237.8228125 -139.9375 235.5128125 -139.9375 233.1328125 C-138.6175 232.8028125 -137.2975 232.4728125 -135.9375 232.1328125 C-135.9375 231.1428125 -135.9375 230.1528125 -135.9375 229.1328125 C-127.0275 229.1328125 -118.1175 229.1328125 -108.9375 229.1328125 C-108.9375 227.8128125 -108.9375 226.4928125 -108.9375 225.1328125 C-103.6575 225.1328125 -98.3775 225.1328125 -92.9375 225.1328125 C-92.9375 223.8128125 -92.9375 222.4928125 -92.9375 221.1328125 C-90.6275 221.1328125 -88.3175 221.1328125 -85.9375 221.1328125 C-85.6075 219.8128125 -85.2775 218.4928125 -84.9375 217.1328125 C-82.6275 217.1328125 -80.3175 217.1328125 -77.9375 217.1328125 C-77.6075 215.8128125 -77.2775 214.4928125 -76.9375 213.1328125 C-74.6275 213.1328125 -72.3175 213.1328125 -69.9375 213.1328125 C-69.9375 211.8128125 -69.9375 210.4928125 -69.9375 209.1328125 C-67.2975 209.1328125 -64.6575 209.1328125 -61.9375 209.1328125 C-61.9375 207.8128125 -61.9375 206.4928125 -61.9375 205.1328125 C-60.6175 205.1328125 -59.2975 205.1328125 -57.9375 205.1328125 C-57.9375 204.1428125 -57.9375 203.1528125 -57.9375 202.1328125 C-55.6275 201.8028125 -53.3175 201.4728125 -50.9375 201.1328125 C-50.9375 200.1428125 -50.9375 199.1528125 -50.9375 198.1328125 C-49.6175 198.1328125 -48.2975 198.1328125 -46.9375 198.1328125 C-46.9375 196.8128125 -46.9375 195.4928125 -46.9375 194.1328125 C-45.6175 194.1328125 -44.2975 194.1328125 -42.9375 194.1328125 C-42.9375 192.8128125 -42.9375 191.4928125 -42.9375 190.1328125 C-41.6175 190.1328125 -40.2975 190.1328125 -38.9375 190.1328125 C-38.9375 188.8128125 -38.9375 187.4928125 -38.9375 186.1328125 C-37.6175 186.1328125 -36.2975 186.1328125 -34.9375 186.1328125 C-34.9375 184.8128125 -34.9375 183.4928125 -34.9375 182.1328125 C-33.6175 182.1328125 -32.2975 182.1328125 -30.9375 182.1328125 C-30.9375 180.8128125 -30.9375 179.4928125 -30.9375 178.1328125 C-29.9475 178.1328125 -28.9575 178.1328125 -27.9375 178.1328125 C-27.6075 176.8128125 -27.2775 175.4928125 -26.9375 174.1328125 C-25.9475 174.1328125 -24.9575 174.1328125 -23.9375 174.1328125 C-23.9375 173.1428125 -23.9375 172.1528125 -23.9375 171.1328125 C-22.6175 171.1328125 -21.2975 171.1328125 -19.9375 171.1328125 C-19.9375 168.4928125 -19.9375 165.8528125 -19.9375 163.1328125 C-18.6175 163.1328125 -17.2975 163.1328125 -15.9375 163.1328125 C-15.9375 161.8128125 -15.9375 160.4928125 -15.9375 159.1328125 C-14.6175 159.1328125 -13.2975 159.1328125 -11.9375 159.1328125 C-11.9375 156.4928125 -11.9375 153.8528125 -11.9375 151.1328125 C-10.6175 151.1328125 -9.2975 151.1328125 -7.9375 151.1328125 C-7.9375 148.8228125 -7.9375 146.5128125 -7.9375 144.1328125 C-6.6175 144.1328125 -5.2975 144.1328125 -3.9375 144.1328125 C-3.9375 141.4928125 -3.9375 138.8528125 -3.9375 136.1328125 C-2.9475 136.1328125 -1.9575 136.1328125 -0.9375 136.1328125 C-0.94910156 135.43414062 -0.96070313 134.73546875 -0.97265625 134.015625 C-0.98167969 133.10554687 -0.99070313 132.19546875 -1 131.2578125 C-1.01740234 129.90042969 -1.01740234 129.90042969 -1.03515625 128.515625 C-0.9375 126.1328125 -0.9375 126.1328125 0.0625 124.1328125 C1.0525 124.1328125 2.0425 124.1328125 3.0625 124.1328125 C3.0625 120.5028125 3.0625 116.8728125 3.0625 113.1328125 C4.3825 113.1328125 5.7025 113.1328125 7.0625 113.1328125 C7.0625 104.2228125 7.0625 95.3128125 7.0625 86.1328125 C8.3825 86.1328125 9.7025 86.1328125 11.0625 86.1328125 C11.0625 83.4928125 11.0625 80.8528125 11.0625 78.1328125 C9.7425 77.8028125 8.4225 77.4728125 7.0625 77.1328125 C7.0625 67.2328125 7.0625 57.3328125 7.0625 47.1328125 C5.7425 46.8028125 4.4225 46.4728125 3.0625 46.1328125 C3.0625 42.5028125 3.0625 38.8728125 3.0625 35.1328125 C2.0725 35.1328125 1.0825 35.1328125 0.0625 35.1328125 C-1.22067892 31.28327574 -1.00393637 28.18543115 -0.9375 24.1328125 C-1.9275 23.8028125 -2.9175 23.4728125 -3.9375 23.1328125 C-3.9375 20.8228125 -3.9375 18.5128125 -3.9375 16.1328125 C-5.2575 16.1328125 -6.5775 16.1328125 -7.9375 16.1328125 C-7.9375 13.4928125 -7.9375 10.8528125 -7.9375 8.1328125 C-9.2575 8.1328125 -10.5775 8.1328125 -11.9375 8.1328125 C-11.9375 5.8228125 -11.9375 3.5128125 -11.9375 1.1328125 C-7.9602701 -0.1929308 -4.14588374 -0.00987256 0 0 Z M46.0625 50.1328125 C46.0625 59.3728125 46.0625 68.6128125 46.0625 78.1328125 C47.5475 78.6278125 47.5475 78.6278125 49.0625 79.1328125 C49.0625 82.1028125 49.0625 85.0728125 49.0625 88.1328125 C47.5775 88.6278125 47.5775 88.6278125 46.0625 89.1328125 C45.7325 100.3528125 45.4025 111.5728125 45.0625 123.1328125 C43.5775 123.6278125 43.5775 123.6278125 42.0625 124.1328125 C42.0625 129.0828125 42.0625 134.0328125 42.0625 139.1328125 C40.7425 139.4628125 39.4225 139.7928125 38.0625 140.1328125 C38.0625 142.4428125 38.0625 144.7528125 38.0625 147.1328125 C36.7425 147.1328125 35.4225 147.1328125 34.0625 147.1328125 C34.0625 151.0928125 34.0625 155.0528125 34.0625 159.1328125 C32.7425 159.1328125 31.4225 159.1328125 30.0625 159.1328125 C29.7325 161.4428125 29.4025 163.7528125 29.0625 166.1328125 C27.5775 166.6278125 27.5775 166.6278125 26.0625 167.1328125 C26.0625 169.4428125 26.0625 171.7528125 26.0625 174.1328125 C25.0725 174.1328125 24.0825 174.1328125 23.0625 174.1328125 C23.0625 175.4528125 23.0625 176.7728125 23.0625 178.1328125 C21.7425 178.1328125 20.4225 178.1328125 19.0625 178.1328125 C18.7325 180.4428125 18.4025 182.7528125 18.0625 185.1328125 C17.0725 185.4628125 16.0825 185.7928125 15.0625 186.1328125 C15.0625 187.4528125 15.0625 188.7728125 15.0625 190.1328125 C13.7425 190.1328125 12.4225 190.1328125 11.0625 190.1328125 C11.0625 192.4428125 11.0625 194.7528125 11.0625 197.1328125 C9.7425 197.4628125 8.4225 197.7928125 7.0625 198.1328125 C7.0625 199.1228125 7.0625 200.1128125 7.0625 201.1328125 C5.7425 201.1328125 4.4225 201.1328125 3.0625 201.1328125 C3.0625 202.4528125 3.0625 203.7728125 3.0625 205.1328125 C1.7425 205.1328125 0.4225 205.1328125 -0.9375 205.1328125 C-0.9375 206.4528125 -0.9375 207.7728125 -0.9375 209.1328125 C-1.9275 209.1328125 -2.9175 209.1328125 -3.9375 209.1328125 C-4.2675 210.4528125 -4.5975 211.7728125 -4.9375 213.1328125 C-5.9275 213.1328125 -6.9175 213.1328125 -7.9375 213.1328125 C-8.2675 214.1228125 -8.5975 215.1128125 -8.9375 216.1328125 C-9.9275 216.4628125 -10.9175 216.7928125 -11.9375 217.1328125 C-12.2675 218.1228125 -12.5975 219.1128125 -12.9375 220.1328125 C-13.9275 220.4628125 -14.9175 220.7928125 -15.9375 221.1328125 C-15.9375 222.1228125 -15.9375 223.1128125 -15.9375 224.1328125 C-17.2575 224.4628125 -18.5775 224.7928125 -19.9375 225.1328125 C-19.9375 226.1228125 -19.9375 227.1128125 -19.9375 228.1328125 C-22.5775 228.4628125 -25.2175 228.7928125 -27.9375 229.1328125 C-27.9375 230.1228125 -27.9375 231.1128125 -27.9375 232.1328125 C-29.2575 232.1328125 -30.5775 232.1328125 -31.9375 232.1328125 C-31.9375 233.4528125 -31.9375 234.7728125 -31.9375 236.1328125 C-32.9275 236.1328125 -33.9175 236.1328125 -34.9375 236.1328125 C-35.2675 237.4528125 -35.5975 238.7728125 -35.9375 240.1328125 C-38.2475 240.1328125 -40.5575 240.1328125 -42.9375 240.1328125 C-43.2675 241.1228125 -43.5975 242.1128125 -43.9375 243.1328125 C-46.2475 243.4628125 -48.5575 243.7928125 -50.9375 244.1328125 C-50.9375 245.4528125 -50.9375 246.7728125 -50.9375 248.1328125 C-52.2575 248.1328125 -53.5775 248.1328125 -54.9375 248.1328125 C-55.2675 249.1228125 -55.5975 250.1128125 -55.9375 251.1328125 C-59.2375 251.4628125 -62.5375 251.7928125 -65.9375 252.1328125 C-65.9375 253.1228125 -65.9375 254.1128125 -65.9375 255.1328125 C-66.5975 255.4628125 -67.2575 255.7928125 -67.9375 256.1328125 C-67.2775 256.1328125 -66.6175 256.1328125 -65.9375 256.1328125 C-65.9375 257.1228125 -65.9375 258.1128125 -65.9375 259.1328125 C-63.6275 259.4628125 -61.3175 259.7928125 -58.9375 260.1328125 C-58.9375 261.1228125 -58.9375 262.1128125 -58.9375 263.1328125 C-56.6275 263.4628125 -54.3175 263.7928125 -51.9375 264.1328125 C-51.6075 265.1228125 -51.2775 266.1128125 -50.9375 267.1328125 C-48.6275 267.4628125 -46.3175 267.7928125 -43.9375 268.1328125 C-43.6075 269.1228125 -43.2775 270.1128125 -42.9375 271.1328125 C-39.3075 271.1328125 -35.6775 271.1328125 -31.9375 271.1328125 C-31.9375 272.4528125 -31.9375 273.7728125 -31.9375 275.1328125 C-23.0275 275.1328125 -14.1175 275.1328125 -4.9375 275.1328125 C-4.9375 276.4528125 -4.9375 277.7728125 -4.9375 279.1328125 C-3.2875 278.8028125 -1.6375 278.4728125 0.0625 278.1328125 C0.0625 277.1428125 0.0625 276.1528125 0.0625 275.1328125 C8.9725 275.1328125 17.8825 275.1328125 27.0625 275.1328125 C27.0625 273.8128125 27.0625 272.4928125 27.0625 271.1328125 C30.6925 271.1328125 34.3225 271.1328125 38.0625 271.1328125 C38.3925 270.1428125 38.7225 269.1528125 39.0625 268.1328125 C41.3725 267.8028125 43.6825 267.4728125 46.0625 267.1328125 C46.3925 266.1428125 46.7225 265.1528125 47.0625 264.1328125 C49.3725 263.8028125 51.6825 263.4728125 54.0625 263.1328125 C54.0625 262.1428125 54.0625 261.1528125 54.0625 260.1328125 C56.3725 259.8028125 58.6825 259.4728125 61.0625 259.1328125 C61.0625 258.1428125 61.0625 257.1528125 61.0625 256.1328125 C62.3825 256.1328125 63.7025 256.1328125 65.0625 256.1328125 C65.0625 254.8128125 65.0625 253.4928125 65.0625 252.1328125 C67.7025 252.1328125 70.3425 252.1328125 73.0625 252.1328125 C73.0625 250.8128125 73.0625 249.4928125 73.0625 248.1328125 C74.3825 248.1328125 75.7025 248.1328125 77.0625 248.1328125 C77.0625 246.8128125 77.0625 245.4928125 77.0625 244.1328125 C78.3825 244.1328125 79.7025 244.1328125 81.0625 244.1328125 C81.0625 242.8128125 81.0625 241.4928125 81.0625 240.1328125 C82.3825 240.1328125 83.7025 240.1328125 85.0625 240.1328125 C85.0625 238.8128125 85.0625 237.4928125 85.0625 236.1328125 C86.0525 236.1328125 87.0425 236.1328125 88.0625 236.1328125 C88.3925 235.1428125 88.7225 234.1528125 89.0625 233.1328125 C90.0525 232.8028125 91.0425 232.4728125 92.0625 232.1328125 C92.3925 230.1528125 92.7225 228.1728125 93.0625 226.1328125 C94.0525 225.8028125 95.0425 225.4728125 96.0625 225.1328125 C96.0625 223.8128125 96.0625 222.4928125 96.0625 221.1328125 C97.3825 221.1328125 98.7025 221.1328125 100.0625 221.1328125 C100.0625 218.4928125 100.0625 215.8528125 100.0625 213.1328125 C101.3825 213.1328125 102.7025 213.1328125 104.0625 213.1328125 C104.3925 210.8228125 104.7225 208.5128125 105.0625 206.1328125 C106.0525 205.8028125 107.0425 205.4728125 108.0625 205.1328125 C108.0625 202.8228125 108.0625 200.5128125 108.0625 198.1328125 C109.3825 198.1328125 110.7025 198.1328125 112.0625 198.1328125 C112.0625 194.1728125 112.0625 190.2128125 112.0625 186.1328125 C113.0525 186.1328125 114.0425 186.1328125 115.0625 186.1328125 C115.3925 177.2228125 115.7225 168.3128125 116.0625 159.1328125 C117.0525 159.1328125 118.0425 159.1328125 119.0625 159.1328125 C119.0625 157.8128125 119.0625 156.4928125 119.0625 155.1328125 C118.0725 155.1328125 117.0825 155.1328125 116.0625 155.1328125 C115.7325 146.2228125 115.4025 137.3128125 115.0625 128.1328125 C114.0725 128.1328125 113.0825 128.1328125 112.0625 128.1328125 C112.0625 124.1728125 112.0625 120.2128125 112.0625 116.1328125 C110.7425 116.1328125 109.4225 116.1328125 108.0625 116.1328125 C108.0625 113.8228125 108.0625 111.5128125 108.0625 109.1328125 C107.0725 108.8028125 106.0825 108.4728125 105.0625 108.1328125 C104.7325 105.8228125 104.4025 103.5128125 104.0625 101.1328125 C103.0725 100.8028125 102.0825 100.4728125 101.0625 100.1328125 C100.7325 97.8228125 100.4025 95.5128125 100.0625 93.1328125 C98.7425 93.1328125 97.4225 93.1328125 96.0625 93.1328125 C96.0625 90.4928125 96.0625 87.8528125 96.0625 85.1328125 C94.7425 85.1328125 93.4225 85.1328125 92.0625 85.1328125 C92.0625 84.1428125 92.0625 83.1528125 92.0625 82.1328125 C91.0725 81.8028125 90.0825 81.4728125 89.0625 81.1328125 C88.7325 80.1428125 88.4025 79.1528125 88.0625 78.1328125 C87.0725 78.1328125 86.0825 78.1328125 85.0625 78.1328125 C85.0625 76.8128125 85.0625 75.4928125 85.0625 74.1328125 C83.7425 74.1328125 82.4225 74.1328125 81.0625 74.1328125 C81.0625 72.8128125 81.0625 71.4928125 81.0625 70.1328125 C79.7425 70.1328125 78.4225 70.1328125 77.0625 70.1328125 C77.0625 68.8128125 77.0625 67.4928125 77.0625 66.1328125 C75.7425 66.1328125 74.4225 66.1328125 73.0625 66.1328125 C73.0625 64.8128125 73.0625 63.4928125 73.0625 62.1328125 C71.7425 62.1328125 70.4225 62.1328125 69.0625 62.1328125 C69.0625 60.8128125 69.0625 59.4928125 69.0625 58.1328125 C66.4225 58.1328125 63.7825 58.1328125 61.0625 58.1328125 C61.0625 57.1428125 61.0625 56.1528125 61.0625 55.1328125 C60.0725 54.8028125 59.0825 54.4728125 58.0625 54.1328125 C57.5675 52.6478125 57.5675 52.6478125 57.0625 51.1328125 C53.4325 50.8028125 49.8025 50.4728125 46.0625 50.1328125 Z " fill="#B6B6B6" transform="translate(242.9375,92.8671875)"/>
<path d="M0 0 C1.65 0 3.3 0 5 0 C3.02 2.31 1.04 4.62 -1 7 C-1.99 6.34 -2.98 5.68 -4 5 C-2.68 4.67 -1.36 4.34 0 4 C0 2.68 0 1.36 0 0 Z " fill="#C0C0C0" transform="translate(339,314)"/>
</svg>
