<?xml version="1.0" encoding="UTF-8"?>
<svg version="1.1" xmlns="http://www.w3.org/2000/svg" width="500" height="500">
<path d="M0 0 C0.99 0.33 1.98 0.66 3 1 C4.20906138 3.5336723 5.22243925 5.98268606 6.1875 8.609375 C6.48679916 9.39608078 6.78609833 10.18278656 7.09446716 10.99333191 C8.07374439 13.57496229 9.03687499 16.1623053 10 18.75 C10.66829518 20.52066298 11.33765322 22.29092517 12.00805664 24.06079102 C13.36313084 27.64327033 14.71192579 31.22801213 16.05517578 34.81494141 C17.83390345 39.56301533 19.62948552 44.30448799 21.43359375 49.04296875 C21.94988378 50.39940874 22.46616028 51.75585388 22.98242188 53.11230469 C23.22532959 53.75051147 23.4682373 54.38871826 23.71850586 55.04626465 C25.4857984 59.69493413 27.24274563 64.3475287 29 69 C32.46411493 62.48027426 35.12546599 55.75422321 37.74645996 48.85720825 C39.04586533 45.43908592 40.35894033 42.02622514 41.671875 38.61328125 C41.94211487 37.91019333 42.21235474 37.20710541 42.49078369 36.48271179 C45.50873313 28.64865236 48.62290013 20.85350412 51.75 13.0625 C52.01611084 12.39917664 52.28222168 11.73585327 52.55639648 11.0524292 C54.03517849 7.36731087 55.51639277 3.6831782 57 0 C57.99 0 58.98 0 60 0 C59.32950521 15.25795416 58.0564017 30.42998186 56.65405273 45.63598633 C56.37891847 48.63330046 56.10918147 51.63106652 55.83984375 54.62890625 C55.71330666 55.97137169 55.71330666 55.97137169 55.58421326 57.34095764 C55.05610551 63.24266467 54.90404558 69.07586855 55 75 C61.85428812 68.68896912 68.69323495 62.36228851 75.5 56 C81.76088217 50.14891811 88.047504 44.32660428 94.35009766 38.52050781 C97.33939145 35.76565109 100.32572641 33.00758844 103.3125 30.25 C104.41274849 29.23436208 105.51300775 28.21873582 106.61328125 27.203125 C107.40089844 26.47609375 108.18851563 25.7490625 109 25 C109.99 25.33 110.98 25.66 112 26 C110.5617698 29.87940166 108.7494216 33.32135383 106.6484375 36.8828125 C106.31704773 37.44668671 105.98565796 38.01056091 105.64422607 38.59152222 C104.55785011 40.43802162 103.466502 42.28152687 102.375 44.125 C101.61675163 45.41129738 100.85878011 46.69775799 100.10107422 47.984375 C98.13311471 51.32365103 96.16059721 54.6602076 94.1862793 57.99572754 C93.01749248 59.97044567 91.8494598 61.94560793 90.68164062 63.92089844 C79.22488412 83.29651686 79.22488412 83.29651686 74 92 C74.66017624 91.79590515 75.32035248 91.5918103 76.00053406 91.38153076 C82.28025296 89.44015954 88.55999777 87.49887212 94.83977032 85.55767441 C98.06677805 84.56014154 101.29377641 83.5625784 104.52075195 82.56494141 C108.24688268 81.41300546 111.97304765 80.26118034 115.69921875 79.109375 C117.40316048 78.58256134 117.40316048 78.58256134 119.14152527 78.04510498 C121.33457621 77.36725013 123.52822093 76.69131283 125.72250366 76.01745605 C128.00045051 75.31029712 130.27380567 74.58824489 132.54336548 73.85461426 C133.69025848 73.48783569 134.83715149 73.12105713 136.01879883 72.74316406 C137.04733475 72.40899475 138.07587067 72.07482544 139.13557434 71.73052979 C141.89420674 71.02698102 144.16934359 70.85495377 147 71 C145.4964035 75.28767517 142.35874902 77.06029832 138.6875 79.375 C137.32256009 80.25986687 135.95799825 81.14531713 134.59375 82.03125 C133.85511719 82.50691406 133.11648438 82.98257813 132.35546875 83.47265625 C128.10372674 86.22959012 123.89942458 89.05777802 119.6875 91.875 C117.89863801 93.06800904 116.10957514 94.26071692 114.3203125 95.453125 C113.43762695 96.04158203 112.55494141 96.63003906 111.64550781 97.23632812 C102.76367187 103.15755208 93.88183594 109.07877604 85 115 C85.89535965 115.13558823 86.7907193 115.27117645 87.71321106 115.41087341 C96.14503262 116.68822155 104.57646432 117.96810662 113.00746632 119.25085354 C117.34208678 119.91025873 121.67685242 120.56867687 126.01196289 121.22485352 C130.19441748 121.85796058 134.37647339 122.49364173 138.55826378 123.13112068 C140.15493487 123.37405459 141.75174817 123.61605565 143.34870338 123.85711479 C145.58286721 124.19452197 147.81650552 124.53522179 150.05004883 124.87670898 C151.32245926 125.06990219 152.59486969 125.2630954 153.90583801 125.46214294 C157 126 157 126 160 127 C159.67 127.99 159.34 128.98 159 130 C158.11494781 130.12306015 157.22989563 130.2461203 156.31802368 130.37290955 C147.98881388 131.5316617 139.66008193 132.69377774 131.33187294 133.85970211 C127.04995696 134.45903579 122.76786573 135.05705403 118.48535156 135.65209961 C114.35469283 136.226094 110.22452425 136.80349981 106.09467697 137.38330269 C104.51674852 137.60421603 102.93864561 137.82388679 101.36037064 138.04231071 C99.15465252 138.34778263 96.9495887 138.6576143 94.74462891 138.96850586 C93.48776276 139.14393417 92.23089661 139.31936249 90.9359436 139.50010681 C88.07657283 139.84057265 88.07657283 139.84057265 86 141 C93.52121366 146.56688255 101.18429607 151.85650332 109 157 C115.96247049 161.58198572 122.80659018 166.26381235 129.52246094 171.20117188 C131.61534919 172.72072259 133.72492565 174.1846832 135.8828125 175.609375 C136.95273437 176.31578125 138.02265625 177.0221875 139.125 177.75 C140.22070312 178.46671875 141.31640625 179.1834375 142.4453125 179.921875 C145.17203928 182.13994632 145.40539388 182.73265218 146 186 C129.38306149 181.10576115 112.89667534 175.83449036 96.41455078 170.50634766 C93.0870433 169.43148107 89.75843336 168.36008662 86.4296875 167.2890625 C85.40906219 166.95790436 84.38843689 166.62674622 83.33688354 166.28555298 C82.40055084 165.9845871 81.46421814 165.68362122 80.49951172 165.37353516 C79.67603241 165.1073941 78.8525531 164.84125305 78.00411987 164.56704712 C76.02639074 163.90924905 76.02639074 163.90924905 74 164 C76.37298008 168.16781931 78.74817225 172.33437395 81.125 176.5 C81.662388 177.44188675 81.662388 177.44188675 82.21063232 178.40280151 C87.84732973 188.2776208 93.53886231 198.11808465 99.30517578 207.91796875 C100.88189313 210.60532676 102.44204486 213.30173137 104 216 C104.87350098 217.47702393 104.87350098 217.47702393 105.76464844 218.98388672 C106.32442383 219.95729004 106.88419922 220.93069336 107.4609375 221.93359375 C107.97188965 222.80943115 108.4828418 223.68526855 109.00927734 224.58764648 C110.11406567 227.27774344 110.04202875 228.33699472 109 231 C101.93288572 224.55319669 94.98799754 218.04348784 88.265625 211.234375 C85.61171065 208.61706637 82.82756462 206.19862166 79.99609375 203.77734375 C76.93607449 201.05266907 74.10293156 198.11121928 71.2265625 195.1953125 C68.62633239 192.63157684 65.9122634 190.24630125 63.1171875 187.8984375 C61.13014458 186.11669791 59.2506361 184.2719523 57.36767578 182.38134766 C56.73709259 181.74879059 56.1065094 181.11623352 55.45681763 180.46450806 C54.7356929 179.73957657 54.7356929 179.73957657 54 179 C54.45973042 189.9969074 55.10761859 200.96345287 56.0078125 211.93359375 C56.09802673 213.03619537 56.18824097 214.138797 56.28118896 215.27481079 C56.65620482 219.82760227 57.03530646 224.38001761 57.42138672 228.93188477 C57.70629893 232.30698037 57.98263889 235.68269222 58.2578125 239.05859375 C58.39209152 240.59911659 58.39209152 240.59911659 58.52908325 242.17076111 C58.6060141 243.12688797 58.68294495 244.08301483 58.76220703 245.06811523 C58.83247101 245.9026976 58.90273499 246.73727997 58.97512817 247.59715271 C59.00202507 250.19564014 58.59291145 252.47598815 58 255 C57.34 255 56.68 255 56 255 C46.77067738 231.75379271 37.87207129 208.38437656 29 185 C22.01909613 201.90478024 15.27160705 218.88828203 8.68505859 235.95019531 C8.39573456 236.69857666 8.10641052 237.44695801 7.80831909 238.21801758 C7.26878929 239.61419385 6.73038427 241.01080558 6.19338989 242.40795898 C4.55466715 246.64959682 2.81210084 250.83055252 1 255 C0.01 254.67 -0.98 254.34 -2 254 C-0.10664497 228.99066729 1.88048383 203.9912084 4 179 C2.88322508 179.94947559 1.76755346 180.90024897 0.65234375 181.8515625 C-0.27976929 182.64554443 -0.27976929 182.64554443 -1.23071289 183.45556641 C-3.60556524 185.52860573 -5.7981336 187.74442955 -8 190 C-12.53489116 194.63304898 -17.15001605 199.05878573 -22.06640625 203.28515625 C-24.56018803 205.49681322 -26.87254398 207.86105737 -29.20703125 210.23828125 C-31.76916769 212.75576172 -34.48291834 215.08240472 -37.20703125 217.421875 C-38.65520191 218.69651758 -40.02866141 220.05573144 -41.375 221.4375 C-43 223 -43 223 -45 223 C-45.33 223.99 -45.66 224.98 -46 226 C-47.95597184 227.39712274 -49.95436401 228.73779907 -52 230 C-52.68896484 228.35717773 -52.68896484 228.35717773 -53 226 C-51.82275391 223.34399414 -51.82275391 223.34399414 -49.9765625 220.28515625 C-49.64366211 219.72533554 -49.31076172 219.16551483 -48.96777344 218.58872986 C-47.86480971 216.7396222 -46.74495164 214.90135912 -45.625 213.0625 C-44.85466141 211.77746851 -44.085636 210.49164897 -43.31787109 209.20507812 C-41.70912125 206.51143579 -40.09464523 203.82134605 -38.4765625 201.13330078 C-34.845038 195.08784904 -31.29411832 188.99522051 -27.73797607 182.90524292 C-25.96638016 179.87254469 -24.19048707 176.84237153 -22.4140625 173.8125 C-21.8257666 172.80832031 -21.2374707 171.80414063 -20.63134766 170.76953125 C-19.1009709 168.17141781 -17.55291671 165.58468039 -16 163 C-17.17604797 163.36918045 -17.17604797 163.36918045 -18.37585449 163.74581909 C-25.78957932 166.07265521 -33.20399846 168.39725979 -40.61919403 170.71940422 C-44.43075703 171.9131193 -48.24205233 173.10767456 -52.05273438 174.30419922 C-55.73496912 175.46035758 -59.41790875 176.61424451 -63.10133362 177.76660538 C-64.5016833 178.2051336 -65.90178352 178.64445929 -67.30162048 179.08462143 C-74.15937509 181.2404239 -80.99385587 183.37301764 -88 185 C-88 181 -88 181 -86.66744995 179.63285828 C-86.04097565 179.22509659 -85.41450134 178.8173349 -84.76904297 178.3972168 C-84.05924286 177.92539474 -83.34944275 177.45357269 -82.61813354 176.967453 C-81.44204025 176.21592705 -81.44204025 176.21592705 -80.2421875 175.44921875 C-79.0219841 174.64542534 -79.0219841 174.64542534 -77.77713013 173.82539368 C-75.15145446 172.09957452 -72.51384414 170.39310027 -69.875 168.6875 C-67.33033184 167.02553186 -64.78828752 165.35960525 -62.24639893 163.69338989 C-60.53131661 162.56969347 -58.81512337 161.44769086 -57.09783936 160.32736206 C-46.96281807 153.70286416 -36.979642 146.855468 -27 140 C-28.34637039 139.79661766 -28.34637039 139.79661766 -29.71994019 139.58912659 C-38.1669016 138.31251674 -46.61336417 137.03266623 -55.05927849 135.74914646 C-59.40171634 135.0893469 -63.74433863 134.43081479 -68.08740234 133.77514648 C-72.27643518 133.14268492 -76.46495704 132.50693695 -80.65314102 131.86887932 C-82.25339014 131.62568276 -83.85382167 131.38368342 -85.45443344 131.14288521 C-87.69130428 130.80616088 -89.9274965 130.46523676 -92.16357422 130.12329102 C-93.43820526 129.93009781 -94.7128363 129.7369046 -96.02609253 129.53785706 C-99 129 -99 129 -101 128 C-101 127.01 -101 126.02 -101 125 C-100.11716843 124.87693985 -99.23433685 124.7538797 -98.32475281 124.62709045 C-90.01066612 123.4676563 -81.69696438 122.30550783 -73.38368511 121.14029789 C-69.10959539 120.54132877 -64.83536347 119.94341548 -60.56079102 119.34790039 C-56.43669588 118.77330979 -52.31299491 118.19596507 -48.18955421 117.61669731 C-46.61520972 117.39602677 -45.04072502 117.1763541 -43.46610069 116.95768929 C-41.26307399 116.6515869 -39.06056948 116.34196148 -36.8581543 116.03149414 C-35.60350876 115.85606583 -34.34886322 115.68063751 -33.05619812 115.49989319 C-29.96951454 115.07813947 -29.96951454 115.07813947 -27 114 C-32.71837538 110.00556799 -38.44029773 106.01624929 -44.16796875 102.03515625 C-45.6223938 101.02400757 -45.6223938 101.02400757 -47.10620117 99.99243164 C-50.93970002 97.35299993 -54.80648159 94.76613622 -58.69140625 92.203125 C-63.65178094 88.90011281 -68.57494753 85.5428778 -73.5 82.1875 C-74.46945557 81.52806396 -75.43891113 80.86862793 -76.43774414 80.18920898 C-77.35547607 79.56344971 -78.27320801 78.93769043 -79.21875 78.29296875 C-80.04310547 77.7311792 -80.86746094 77.16938965 -81.71679688 76.59057617 C-82.84698242 75.80324097 -82.84698242 75.80324097 -84 75 C-84.75861328 74.49895752 -85.51722656 73.99791504 -86.29882812 73.48168945 C-86.86021484 72.99273193 -87.42160156 72.50377441 -88 72 C-88 71.01 -88 70.02 -88 69 C-80.22727084 70.85924902 -72.59881629 72.96445529 -65 75.4375 C-63.97269775 75.76878906 -62.94539551 76.10007812 -61.88696289 76.44140625 C-46.22175958 81.51670848 -30.61313386 86.76722103 -15 92 C-23.85487356 76.21593187 -23.85487356 76.21593187 -32.9375 60.5625 C-33.3200293 59.914021 -33.70255859 59.26554199 -34.09667969 58.59741211 C-35.98992276 55.39172011 -37.88773403 52.18880399 -39.79052734 48.98876953 C-41.74133996 45.70435333 -43.68352612 42.41494324 -45.625 39.125 C-46.5684729 37.54440796 -46.5684729 37.54440796 -47.53100586 35.93188477 C-48.11116455 34.94631592 -48.69132324 33.96074707 -49.2890625 32.9453125 C-49.81193848 32.06375488 -50.33481445 31.18219727 -50.87353516 30.27392578 C-52 28 -52 28 -52 25 C-48.46846426 25.58712026 -46.73500048 26.85808899 -44.171875 29.31640625 C-43.45386719 29.99896484 -42.73585937 30.68152344 -41.99609375 31.38476562 C-40.88427734 32.46274414 -40.88427734 32.46274414 -39.75 33.5625 C-39.02425781 34.25408203 -38.29851562 34.94566406 -37.55078125 35.65820312 C-33.2328271 39.78758352 -28.99183573 43.98781148 -24.79638672 48.24145508 C-23.04858783 49.9524357 -21.24407697 51.54839277 -19.375 53.125 C-14.66254109 57.16291211 -10.35140944 61.59628448 -6.01123047 66.02587891 C-2.82568995 69.25785848 0.37527876 72.24903454 4 75 C4.09967861 68.10882603 3.71261356 61.35626871 3.125 54.4921875 C2.94258357 52.26563522 2.76029601 50.03907237 2.578125 47.8125 C2.29059445 44.35039745 2.0011371 40.88847344 1.70898438 37.42675781 C0.6597305 24.93207138 -0.37197536 12.54641889 0 0 Z " fill="#B6B6B6" transform="translate(256,123)"/>
<path d="M0 0 C0 0.99 0 1.98 0 3 C-5.88965412 2.21971461 -11.61074828 1.02463399 -17.40234375 -0.28125 C-46.32563334 -6.05962707 -76.84864216 0.99874781 -101.31640625 17.1953125 C-107.92154731 22.03739548 -114.04300343 27.38745561 -120 33 C-120.67546875 33.61101562 -121.3509375 34.22203125 -122.046875 34.8515625 C-128.37683034 40.80172052 -133.18166296 47.8185978 -138 55 C-138.81791016 56.21623047 -138.81791016 56.21623047 -139.65234375 57.45703125 C-162.41230774 93.45686348 -167.54160796 136.79405167 -158.734375 177.90698242 C-155.47585251 192.17029178 -149.93036181 205.1608835 -143 218 C-142.4225 219.0828125 -141.845 220.165625 -141.25 221.28125 C-137.21972462 228.52081874 -132.43228999 234.76020745 -127 241 C-125.9171875 242.28390625 -125.9171875 242.28390625 -124.8125 243.59375 C-119.42323267 249.8299022 -113.59617656 255.06552009 -107 260 C-106.45633789 260.40750488 -105.91267578 260.81500977 -105.35253906 261.23486328 C-95.29728232 268.65496898 -84.68165646 273.64360443 -73 278 C-72.04222656 278.35964844 -71.08445313 278.71929687 -70.09765625 279.08984375 C-50.66478213 285.58902461 -28.73151152 284.08581804 -9 280 C-7.45699219 279.68095703 -7.45699219 279.68095703 -5.8828125 279.35546875 C-3.91606512 278.9296465 -1.95642218 278.47099053 0 278 C0 278.99 0 279.98 0 281 C-7.5756806 284.16741818 -15.17390492 287.19053784 -23 289.6875 C-24.7634375 290.25017578 -24.7634375 290.25017578 -26.5625 290.82421875 C-38.635385 294.18294032 -50.08109177 295.57719949 -62.5625 295.5 C-63.29957184 295.49890228 -64.03664368 295.49780457 -64.79605103 295.49667358 C-77.72912488 295.44170606 -89.60272494 293.81993395 -102 290 C-103.35665373 289.61156995 -104.71341809 289.22352599 -106.0703125 288.8359375 C-145.27419318 276.80468393 -174.31913517 248.81106418 -193.90625 213.5703125 C-201.42228886 199.29643168 -205.88102926 183.78095806 -209 168 C-209.17805176 167.12424316 -209.35610352 166.24848633 -209.53955078 165.34619141 C-211.05123696 157.25549565 -211.38627639 149.34497685 -211.375 141.125 C-211.37445618 140.44980316 -211.37391235 139.77460632 -211.37335205 139.07894897 C-211.2855438 115.20529014 -205.99007828 91.28995841 -195 70 C-194.3982444 68.78915845 -193.79669058 67.5782166 -193.1953125 66.3671875 C-185.81977046 51.77987886 -176.32663653 39.71497835 -165 28 C-164.38640625 27.33484375 -163.7728125 26.6696875 -163.140625 25.984375 C-121.54449129 -18.08281616 -53.103216 -23.95474415 0 0 Z " fill="#B6B6B6" transform="translate(295,110)"/>
</svg>
