<?xml version="1.0" encoding="UTF-8"?>
<svg version="1.1" xmlns="http://www.w3.org/2000/svg" width="500" height="500">
<path d="M0 0 C1.0802948 -0.00761353 2.1605896 -0.01522705 3.27362061 -0.02307129 C5.54925245 -0.03380444 7.82493328 -0.03675329 10.10058594 -0.03222656 C13.49763445 -0.03126395 16.89234433 -0.0727666 20.2890625 -0.1171875 C68.39252105 -0.37978887 113.36230112 20.99094484 147.296875 54.46875 C181.23858916 88.76507909 199.71920141 135.54359877 199.734375 183.59375 C199.50321005 225.61734798 186.89858278 264.98321001 161.296875 298.46875 C160.61496094 299.37496094 159.93304688 300.28117187 159.23046875 301.21484375 C148.99612546 314.28450795 136.86482983 325.92573871 123.296875 335.46875 C122.71615234 335.88318359 122.13542969 336.29761719 121.53710938 336.72460938 C112.25094613 343.31768553 102.65380708 348.74457892 92.296875 353.46875 C91.30397461 353.92677002 91.30397461 353.92677002 90.29101562 354.39404297 C81.85369524 358.23347472 73.28919455 361.23329138 64.359375 363.71875 C63.11099854 364.06993896 63.11099854 364.06993896 61.83740234 364.42822266 C46.52236262 368.49068328 31.47906423 370.02424808 15.671875 369.90625 C14.36675964 369.90168793 14.36675964 369.90168793 13.03527832 369.89703369 C-8.53124086 369.78598818 -28.27560781 366.39082554 -48.703125 359.46875 C-49.79882812 359.11425781 -50.89453125 358.75976562 -52.0234375 358.39453125 C-76.16490183 349.91665409 -97.58426726 335.32028033 -115.703125 317.46875 C-116.21520508 316.97036621 -116.72728516 316.47198242 -117.25488281 315.95849609 C-130.37719233 303.17933455 -130.37719233 303.17933455 -131.26953125 298.49609375 C-131.25905577 290.20999103 -131.25905577 290.20999103 -128.640625 286.71875 C-123.24155486 284.42127335 -117.78668774 285.52664915 -112.140625 286.46875 C-75.99917641 291.66135482 -39.10251222 281.91894668 -9.703125 260.46875 C21.63366081 236.97804865 42.26726985 203.96964638 47.91308594 165.0078125 C48.618438 158.50349731 48.69053923 152.00311702 48.671875 145.46875 C48.67133118 144.7480835 48.67078735 144.02741699 48.67022705 143.28491211 C48.53429985 103.93344349 32.14491663 68.88561196 4.38256836 41.24951172 C-3.48981394 33.61575565 -12.08387946 27.06251621 -21.6796875 21.72265625 C-24.53079435 19.95585066 -26.33437789 18.64785753 -27.35546875 15.3828125 C-27.82396268 11.62202558 -27.9820686 9.14408714 -26.515625 5.59375 C-19.19702183 0.06413872 -8.85280665 0.00178272 0 0 Z " fill="#000000" transform="translate(215.703125,65.53125)"/>
</svg>
