<?xml version="1.0" encoding="UTF-8"?>
<svg version="1.1" xmlns="http://www.w3.org/2000/svg" width="500" height="500">
<path d="M0 0 C1.09070801 0.61166016 2.18141602 1.22332031 3.30517578 1.85351562 C17.02167557 9.55912337 30.63949895 17.41845607 43.98828125 25.74853516 C46.03807958 27.02368883 48.09621353 28.28443334 50.15625 29.54296875 C87.46089658 52.43546025 87.46089658 52.43546025 93.31640625 71.04296875 C97.24870462 88.05296797 94.44544971 107.25666316 91.46606445 124.24291992 C90.83043386 128.0030961 90.40255483 131.77162291 90 135.5625 C89.37537753 141.15869594 88.56364706 146.65321401 87.4921875 152.18359375 C86.9147462 155.48784118 86.51772952 158.79368908 86.125 162.125 C84.30729137 177.19153927 82.12507647 192.25249791 78.5 207 C78.31074951 207.78149414 78.12149902 208.56298828 77.92651367 209.36816406 C75.98413998 216.89028488 72.9008972 223.82035459 68.9375 230.5 C68.45152344 231.3353125 67.96554687 232.170625 67.46484375 233.03125 C66 235 66 235 63 236 C62.70222656 236.61746094 62.40445313 237.23492187 62.09765625 237.87109375 C59.43137057 243.04235957 52.04138475 245.80126529 46.75 247.6875 C35.98826346 250.7868352 25.73106952 252.44679416 14.53149414 252.38818359 C12.6333622 252.39606903 12.6333622 252.39606903 10.69688416 252.40411377 C7.27110496 252.41761856 3.84560127 252.41255934 0.41981816 252.40297651 C-3.19527126 252.39528961 -6.81033977 252.40245038 -10.4254303 252.40713501 C-16.49321654 252.41256733 -22.56089265 252.40546851 -28.62866211 252.39111328 C-35.60424288 252.37479899 -42.57956033 252.38007655 -49.55513471 252.3965925 C-55.58534816 252.41028874 -61.61548319 252.41208741 -67.64570719 252.40427649 C-71.22921556 252.39964336 -74.81260095 252.3988526 -78.396101 252.40888596 C-122.48760342 252.51546493 -122.48760342 252.51546493 -140.09375 237.17578125 C-157.00847791 220.09841173 -158.72441888 190.44542498 -162 168 C-162.13116211 167.10313477 -162.26232422 166.20626953 -162.39746094 165.28222656 C-163.01589075 161.02710817 -163.6198275 156.7701684 -164.21484375 152.51171875 C-164.78359107 148.4681997 -165.38645662 144.43089763 -166.00390625 140.39453125 C-175.7971578 76.27679186 -175.7971578 76.27679186 -161.53125 55.90234375 C-149.34401441 40.640601 -129.59565043 31.36843421 -112.95605469 21.72119141 C-109.42514636 19.66528591 -105.92935024 17.55897881 -102.4375 15.4375 C-96.17221573 11.67251479 -89.86440335 7.98206138 -83.54104614 4.31546021 C-81.87108404 3.34649242 -80.20296346 2.37435301 -78.53491211 1.40209961 C-49.50219476 -15.37929346 -29.15097503 -16.40687301 0 0 Z M-85 168 C-86.49105779 170.98211558 -86.50994661 172.68534705 -86 176 C-76.80275761 186.57682874 -59.51499169 192.50671409 -46 194 C-31.84787797 194.85550738 -18.94909237 193.15510959 -6 187.1875 C-4.95888062 186.70893555 -4.95888062 186.70893555 -3.89672852 186.22070312 C1.77083505 183.44475362 7.79080284 180.05481388 10.1875 174 C9.9388292 170.02126722 8.48723904 168.05575082 6 165 C3.00818583 163.50409291 1.3583794 163.57256989 -2 164 C-4.32192544 165.3399081 -6.46191781 166.85594173 -8.6484375 168.40625 C-20.73101919 176.59510935 -35.36234858 177.32070164 -49.4609375 175.5703125 C-58.0227889 173.89111162 -67.70777407 170.29222593 -74 164 C-79.09234076 163.32102123 -81.35893262 164.46296311 -85 168 Z " fill="#A4A0A0" transform="translate(288,130)"/>
</svg>
