<?xml version="1.0" encoding="UTF-8"?>
<svg version="1.1" xmlns="http://www.w3.org/2000/svg" width="500" height="500">
<path d="M0 0 C2.99486798 1.83008577 6.0050451 3.63229799 9.02050781 5.42822266 C19.47054627 11.66831882 29.64365589 17.8654202 38.91894531 25.78369141 C40.06169922 26.72341797 40.06169922 26.72341797 41.22753906 27.68212891 C49.59281242 35.17766685 54.91515602 46.6523335 55.91894531 57.78369141 C56.23498922 67.60958425 55.69065949 77.14940861 54.48144531 86.90869141 C54.39991211 87.58425079 54.31837891 88.25981018 54.234375 88.95584106 C52.3229297 104.73398978 50.01331452 120.46154808 47.71564865 136.18721771 C47.42242771 138.19731873 47.1309871 140.20767132 46.83987427 142.21807861 C37.74662371 204.75464609 37.74662371 204.75464609 19.08691406 220.31103516 C0.24965138 233.35831815 -28.04263861 230.94402348 -49.86621094 230.95166016 C-52.05651368 230.95488359 -54.24681621 230.95824843 -56.43711853 230.96174622 C-61.01008604 230.96770049 -65.58303475 230.96959 -70.15600586 230.96899414 C-75.95240557 230.96889284 -81.74868193 230.98252879 -87.54505253 230.99976635 C-92.06585723 231.01100674 -96.58663326 231.01290968 -101.10745049 231.01238441 C-103.24119935 231.01354712 -105.3749494 231.01786985 -107.50868416 231.02571678 C-161.23707224 231.20479681 -161.23707224 231.20479681 -179.35449219 215.85791016 C-187.91744009 207.14732522 -191.87250578 195.73673051 -194.57324219 184.08837891 C-194.78686905 183.17637726 -195.00049591 182.26437561 -195.22059631 181.32473755 C-197.46057565 171.50706778 -199.03796767 161.61431339 -200.51855469 151.65869141 C-200.81255715 149.72397415 -201.10700025 147.78932381 -201.40185547 145.85473633 C-203.50899376 131.94826601 -205.50474473 118.02530518 -207.45605469 104.09619141 C-207.58333954 103.18826843 -207.71062439 102.28034546 -207.84176636 101.34490967 C-214.73460876 51.98362711 -214.73460876 51.98362711 -202.08105469 33.78369141 C-192.68773935 22.24498924 -179.09358799 14.58045283 -166.42382812 7.16357422 C-162.64517169 4.93796291 -158.88889255 2.67525252 -155.13012695 0.41625977 C-151.87732603 -1.53856146 -148.62177488 -3.48874956 -145.36621094 -5.43896484 C-141.48912553 -7.76427491 -137.62102623 -10.10292248 -133.76464844 -12.46240234 C-125.26683321 -17.64812931 -116.69297914 -22.61955841 -107.89355469 -27.27880859 C-107.04438477 -27.73223633 -106.19521484 -28.18566406 -105.3203125 -28.65283203 C-67.13921429 -48.53598994 -32.02667506 -19.71836289 0 0 Z M-125.08105469 171.78369141 C-126.50767687 174.63693578 -126.39139336 176.6182369 -126.08105469 179.78369141 C-124.28111694 182.48359802 -122.99728169 184.32557791 -120.08105469 185.78369141 C-117.42267323 185.89762862 -114.78988165 185.9515233 -112.13061523 185.96069336 C-111.30930115 185.96726456 -110.48798706 185.97383575 -109.64178467 185.98060608 C-106.91711338 186.0003564 -104.19249725 186.01200541 -101.46777344 186.02197266 C-100.07323409 186.02808595 -100.07323409 186.02808595 -98.65052223 186.03432274 C-93.72998908 186.05519071 -88.80948387 186.06948937 -83.88891602 186.07885742 C-78.80439957 186.0899244 -73.72032046 186.12432552 -68.63595867 186.16402912 C-64.72830894 186.19016417 -60.82076389 186.19854648 -56.91303444 186.2021389 C-55.03873554 186.20701279 -53.16444156 186.21864957 -51.29022789 186.2371769 C-48.66635787 186.26150278 -46.04362579 186.26061553 -43.41967773 186.25366211 C-42.64598343 186.26647217 -41.87228912 186.27928223 -41.07514954 186.29248047 C-37.3614706 186.25662451 -35.27633322 185.90938435 -32.12239075 183.87931824 C-29.6893354 181.38155407 -29.1532436 180.43339165 -28.76855469 176.97119141 C-29.15269827 173.05292691 -30.37361785 171.57075874 -33.08105469 168.78369141 C-36.22156722 167.21343514 -39.58251141 167.61858273 -43.03149414 167.60668945 C-43.85280823 167.60011826 -44.67412231 167.59354706 -45.52032471 167.58677673 C-48.24499599 167.56702641 -50.96961212 167.5553774 -53.69433594 167.54541016 C-55.08887528 167.53929687 -55.08887528 167.53929687 -56.51158714 167.53306007 C-61.4321203 167.5121921 -66.3526255 167.49789344 -71.27319336 167.48852539 C-76.35770981 167.47745841 -81.44178892 167.44305729 -86.5261507 167.40335369 C-90.43380044 167.37721865 -94.34134548 167.36883633 -98.24907494 167.36524391 C-100.12337384 167.36037002 -101.99766782 167.34873324 -103.87188148 167.33020592 C-106.4957515 167.30588003 -109.11848358 167.30676729 -111.74243164 167.3137207 C-112.51612595 167.30091064 -113.28982025 167.28810059 -114.08695984 167.27490234 C-119.04339201 167.32275722 -121.61398546 168.22441303 -125.08105469 171.78369141 Z " fill="#000000" transform="translate(327.0810546875,153.21630859375)"/>
</svg>
